<svg width="33" height="33" viewBox="0 0 33 33" fill="none" xmlns="http://www.w3.org/2000/svg">
<path d="M16.5 21.4156C16.3167 21.4156 16.1448 21.387 15.9844 21.3297C15.824 21.2724 15.675 21.175 15.5375 21.0375L10.5875 16.0875C10.3125 15.8125 10.1807 15.4917 10.1922 15.125C10.2036 14.7583 10.3354 14.4375 10.5875 14.1625C10.8625 13.8875 11.1891 13.7443 11.5672 13.7328C11.9453 13.7214 12.2719 13.8531 12.5469 14.1281L15.125 16.7063V6.875C15.125 6.48542 15.2568 6.15885 15.5203 5.89531C15.7839 5.63177 16.1104 5.5 16.5 5.5C16.8896 5.5 17.2161 5.63177 17.4797 5.89531C17.7432 6.15885 17.875 6.48542 17.875 6.875V16.7063L20.4531 14.1281C20.7281 13.8531 21.0547 13.7214 21.4328 13.7328C21.8109 13.7443 22.1375 13.8875 22.4125 14.1625C22.6646 14.4375 22.7964 14.7583 22.8078 15.125C22.8193 15.4917 22.6875 15.8125 22.4125 16.0875L17.4625 21.0375C17.325 21.175 17.176 21.2724 17.0156 21.3297C16.8552 21.387 16.6833 21.4156 16.5 21.4156ZM8.25 27.5C7.49375 27.5 6.84635 27.2307 6.30781 26.6922C5.76927 26.1536 5.5 25.5063 5.5 24.75V22C5.5 21.6104 5.63177 21.2839 5.89531 21.0203C6.15885 20.7568 6.48542 20.625 6.875 20.625C7.26458 20.625 7.59115 20.7568 7.85469 21.0203C8.11823 21.2839 8.25 21.6104 8.25 22V24.75H24.75V22C24.75 21.6104 24.8818 21.2839 25.1453 21.0203C25.4089 20.7568 25.7354 20.625 26.125 20.625C26.5146 20.625 26.8411 20.7568 27.1047 21.0203C27.3682 21.2839 27.5 21.6104 27.5 22V24.75C27.5 25.5063 27.2307 26.1536 26.6922 26.6922C26.1536 27.2307 25.5063 27.5 24.75 27.5H8.25Z" fill="black"/>
</svg>
