<svg width="44" height="44" viewBox="0 0 44 44" fill="none" xmlns="http://www.w3.org/2000/svg">
<path d="M30.4334 33L24.6125 27.1791L27.225 24.5666L33 30.3416V27.5C33 26.9805 33.1757 26.5451 33.5271 26.1937C33.8785 25.8423 34.3139 25.6666 34.8334 25.6666C35.3528 25.6666 35.7882 25.8423 36.1396 26.1937C36.491 26.5451 36.6667 26.9805 36.6667 27.5V34.8333C36.6667 35.3528 36.491 35.7882 36.1396 36.1396C35.7882 36.491 35.3528 36.6666 34.8334 36.6666H27.5C26.9806 36.6666 26.5452 36.491 26.1938 36.1396C25.8424 35.7882 25.6667 35.3528 25.6667 34.8333C25.6667 34.3139 25.8424 33.8785 26.1938 33.5271C26.5452 33.1757 26.9806 33 27.5 33H30.4334ZM33 13.5666L11.1673 35.3994C10.8419 35.7248 10.4195 35.8875 9.90005 35.8875C9.3806 35.8875 8.95283 35.7194 8.61672 35.3833C8.2806 35.0472 8.11255 34.6194 8.11255 34.1C8.11255 33.5805 8.2806 33.1528 8.61672 32.8166L30.4334 11H27.5C26.9806 11 26.5452 10.8243 26.1938 10.4729C25.8424 10.1215 25.6667 9.68609 25.6667 9.16665C25.6667 8.6472 25.8424 8.21179 26.1938 7.8604C26.5452 7.50901 26.9806 7.33331 27.5 7.33331H34.8334C35.3528 7.33331 35.7882 7.50901 36.1396 7.8604C36.491 8.21179 36.6667 8.6472 36.6667 9.16665V16.5C36.6667 17.0194 36.491 17.4548 36.1396 17.8062C35.7882 18.1576 35.3528 18.3333 34.8334 18.3333C34.3139 18.3333 33.8785 18.1576 33.5271 17.8062C33.1757 17.4548 33 17.0194 33 16.5V13.5666ZM16.8209 19.3875L8.61672 11.1833C8.2806 10.8472 8.11255 10.4194 8.11255 9.89998C8.11255 9.38054 8.2806 8.95276 8.61672 8.61665C8.96047 8.28054 9.39015 8.11248 9.90578 8.11248C10.4214 8.11248 10.8473 8.28054 11.1834 8.61665L19.3875 16.8208L16.8209 19.3875Z" fill="black"/>
</svg>
